<?xml version="1.0" encoding="utf-8"?>
<!-- Generator: Adobe Illustrator 23.0.1, SVG Export Plug-In . SVG Version: 6.00 Build 0)  -->
<svg version="1.1" id="圖層_1" xmlns="http://www.w3.org/2000/svg" xmlns:xlink="http://www.w3.org/1999/xlink" x="0px" y="0px"
	 viewBox="0 0 129.5 30" style="enable-background:new 0 0 129.5 30;" xml:space="preserve">
<style type="text/css">
	.st0{fill:#EA5504;}
</style>
<g>
	<path class="st0" d="M43.5,9.6h-2.2c0,0-0.1,0-0.1,0c-0.3,0-0.4,0.3-0.4,0.5h0v11.3c0,0.3-0.2,0.6-0.5,0.8
		c-0.3,0.2-0.7,0.3-1.1,0.3c-0.4,0-0.5,0.2-0.5,0.5v1.1c0,0.3,0.2,0.5,0.5,0.5h0.5v0c1.1-0.1,2.2-0.4,3.1-1.1
		c0.7-0.5,1.2-1.2,1.3-2.1V10.2c0,0,0-0.1,0-0.1C44,9.8,43.8,9.6,43.5,9.6z"/>
	<path class="st0" d="M41.4,7.5h2.2c0,0,0.1,0,0.1,0c0.3,0,0.4-0.3,0.4-0.5V5.8c0,0,0-0.1,0-0.1c0-0.3-0.3-0.4-0.5-0.4h-2.2
		c0,0-0.1,0-0.1,0c-0.3,0-0.4,0.3-0.4,0.5v1.1c0,0,0,0.1,0,0.1C40.9,7.3,41.1,7.5,41.4,7.5z"/>
	<path class="st0" d="M59.5,12.9c0-1-0.6-1.8-1.4-2.3c-1-0.7-2.2-1-3.4-1h-3.2c-1.2,0-2.4,0.3-3.4,1c-0.8,0.5-1.4,1.3-1.4,2.3v4.3
		c0,0.9,0.5,1.7,1.3,2.2c0.9,0.6,2,1,3.1,1.1h3.8c1.2,0,2.4-0.3,3.4-1c0.8-0.5,1.4-1.3,1.4-2.3l0,0V12.9z M56.2,17.2
		c0,0.3-0.2,0.6-0.5,0.8c-0.3,0.2-0.7,0.3-1.1,0.3h-3.2c-0.4,0-0.8-0.1-1.2-0.3c-0.3-0.2-0.5-0.4-0.5-0.8v-4.3
		c0-0.3,0.2-0.6,0.5-0.8c0.3-0.2,0.7-0.3,1.2-0.3h3.2c0.4,0,0.8,0.1,1.1,0.3c0.3,0.1,0.5,0.4,0.5,0.8V17.2z"/>
	<path class="st0" d="M64.7,5.3h-2.2c0,0-0.1,0-0.1,0c-0.3,0-0.4,0.3-0.4,0.5v14c0,0,0,0.1,0,0.1c0,0.3,0.3,0.4,0.5,0.4h2.2
		c0,0,0.1,0,0.1,0c0.3,0,0.4-0.3,0.4-0.5v-14c0,0,0-0.1,0-0.1C65.2,5.4,64.9,5.3,64.7,5.3z"/>
	<path class="st0" d="M70.9,5.8c0,0,0-0.1,0-0.1c0-0.3-0.3-0.4-0.5-0.4h-2.2c0,0-0.1,0-0.1,0c-0.3,0-0.4,0.3-0.4,0.5v14
		c0,0,0,0.1,0,0.1c0,0.3,0.3,0.4,0.5,0.4h2.2c0,0,0.1,0,0.1,0c0.3,0,0.5-0.3,0.4-0.5h0V5.8z"/>
	<path class="st0" d="M85.7,9.6h-2.2c-0.4,0-0.5,0.2-0.5,0.5v8.1h-4.9c-0.4,0-0.8-0.1-1.2-0.3l0,0c-0.3-0.2-0.5-0.4-0.5-0.8v-7
		c0,0,0-0.1,0-0.1c0-0.3-0.3-0.4-0.5-0.4h-2.2c0,0-0.1,0-0.1,0c-0.3,0-0.4,0.3-0.4,0.5v7c0,1,0.6,1.8,1.4,2.3c1,0.7,2.2,1,3.4,0.9
		h3.2c0.4,0,0.8,0.1,1.1,0.3c0.3,0.1,0.5,0.4,0.5,0.7v0c0,0.3-0.2,0.6-0.5,0.8c-0.3,0.2-0.7,0.3-1.1,0.3H76c-0.4,0-0.5,0.2-0.5,0.5
		v1.1c0,0.3,0.2,0.5,0.5,0.5h5.9v0c1.1-0.1,2.2-0.4,3.1-1.1c0.7-0.5,1.2-1.3,1.3-2.1V10.2c0,0,0-0.1,0-0.1C86.2,9.8,86,9.6,85.7,9.6
		z"/>
	<path class="st0" d="M107.7,9.6h-2.1c0,0-0.1,0-0.1,0c-0.3,0-0.4,0.3-0.4,0.5v7c0,0.4-0.2,0.7-0.6,0.8c-0.3,0.1-0.7,0.2-1,0.2h-1.6
		c-0.4,0-0.8-0.1-1.1-0.3c-0.3-0.1-0.5-0.4-0.5-0.8v-7c0,0,0-0.1,0-0.1c0-0.3-0.3-0.4-0.5-0.4h-2.2c-0.4,0-0.5,0.2-0.5,0.5v7
		c0,0.3-0.2,0.6-0.5,0.8c-0.3,0.2-0.7,0.3-1.1,0.3h-1.6c-0.4,0-0.8-0.1-1.2-0.3c-0.3-0.2-0.5-0.4-0.5-0.8v-7c0,0,0-0.1,0-0.1
		c0-0.3-0.3-0.4-0.5-0.4h-2.2c0,0-0.1,0-0.1,0c-0.3,0-0.5,0.3-0.4,0.5v7c0,1,0.6,1.8,1.4,2.3c1,0.7,2.2,1,3.4,1h9.7
		c1.2,0,2.4-0.3,3.4-1l0,0c0.8-0.5,1.4-1.3,1.4-2.3v-7c0,0,0-0.1,0-0.1C108.2,9.8,107.9,9.6,107.7,9.6z"/>
	<path class="st0" d="M113.5,9.6h-2.2c0,0-0.1,0-0.1,0c-0.3,0-0.4,0.3-0.4,0.5v9.7c0,0,0,0.1,0,0.1c0,0.3,0.3,0.4,0.5,0.4h2.2
		c0,0,0.1,0,0.1,0c0.3,0,0.4-0.3,0.4-0.5v-9.7c0,0,0-0.1,0-0.1C114,9.8,113.8,9.6,113.5,9.6z"/>
	<path class="st0" d="M111.4,7.5h2.2c0.4,0,0.5-0.2,0.5-0.5V5.8c0,0,0-0.1,0-0.1c0-0.3-0.3-0.4-0.5-0.4h-2.2c0,0-0.1,0-0.1,0
		c-0.3,0-0.4,0.3-0.4,0.5v1.1C110.8,7.3,111,7.5,111.4,7.5z"/>
	<path class="st0" d="M120.2,16.4c0.3-0.2,0.7-0.3,1.2-0.3v0h3.8c1.1-0.1,2.2-0.4,3.1-1.1c0.8-0.5,1.2-1.3,1.3-2.2V9.6H117
		c0,0-0.1,0-0.1,0c-0.3,0-0.4,0.3-0.4,0.6v1.1c0,0,0,0.1,0,0.1c0,0.3,0.3,0.4,0.5,0.4h7.6c0.4,0,0.8,0.1,1.1,0.3
		c0.2,0.1,0.3,0.2,0.4,0.4c0.2,0.4,0,0.9-0.4,1.1c-0.3,0.2-0.7,0.3-1.1,0.3h-3.3v0c-1.2,0-2.4,0.3-3.4,0.9c-0.8,0.5-1.4,1.3-1.4,2.3
		v3.3h12.4c0,0,0.1,0,0.1,0c0.3,0,0.4-0.3,0.4-0.5v-1.1c0,0,0-0.1,0-0.1c0-0.3-0.3-0.4-0.5-0.4h-7.5c-0.4,0-0.8-0.1-1.1-0.3l0,0
		c-0.3-0.1-0.5-0.4-0.5-0.8v0C119.7,16.9,119.9,16.6,120.2,16.4z"/>
	<path class="st0" d="M15,0C6.7,0,0,6.7,0,15s6.7,15,15,15s15-6.7,15-15C30,6.7,23.3,0,15,0z M10.7,19.9l-5.1,5.1
		c-0.3,0.3-0.5,0.2-0.5-0.2V20c0-0.4,0.3-0.7,0.7-0.7h4.7C10.9,19.4,11,19.6,10.7,19.9z M10.9,15.4c0,1.6-1.3,3-3,3
		c-1.6,0-3-1.3-3-3c0-1.6,1.3-3,3-3S10.9,13.7,10.9,15.4C10.9,15.4,10.9,15.4,10.9,15.4z M10.9,8.5c0,1.6-1.3,3-3,3
		c-1.6,0-3-1.3-3-3c0-1.6,1.3-3,3-3S10.9,6.9,10.9,8.5C10.9,8.5,10.9,8.5,10.9,8.5z M17.8,24.5c0,0.4-0.3,0.6-0.6,0.6h-4.4
		c-0.4,0-0.6-0.3-0.6-0.6v-4.4c0-0.4,0.3-0.6,0.6-0.6h4.4c0.4,0,0.6,0.3,0.6,0.6V24.5z M17.8,17.6c0,0.4-0.3,0.6-0.6,0.6h-4.4
		c-0.4,0-0.6-0.3-0.6-0.6v-4.4c0-0.4,0.3-0.6,0.6-0.6h4.4c0.4,0,0.6,0.3,0.6,0.6V17.6z M17.8,10.7c0,0.4-0.3,0.6-0.6,0.6
		c0,0,0,0,0,0h-4.4c-0.4,0-0.6-0.3-0.6-0.6c0,0,0,0,0,0V6.3c0-0.2,0.1-0.3,0.2-0.4l2.3-2.3c0.2-0.2,0.5-0.2,0.7,0l2.3,2.3
		c0.1,0.1,0.2,0.3,0.2,0.5L17.8,10.7z M24.9,24.8L24.9,24.8c0,0.4-0.2,0.5-0.5,0.2l-5.1-5.1c-0.3-0.3-0.2-0.5,0.2-0.5h4.7
		c0.4,0,0.7,0.3,0.7,0.7V24.8z M22.1,18.4L22.1,18.4c-1.6,0-3-1.3-3-3c0-1.6,1.3-3,3-3c1.6,0,3,1.3,3,3C25,17,23.7,18.4,22.1,18.4z
		 M22.1,11.5L22.1,11.5c-1.6,0-3-1.3-3-3c0-1.6,1.3-3,3-3c1.6,0,3,1.3,3,3C25,10.2,23.7,11.5,22.1,11.5z"/>
</g>
</svg>
